<?xml version="1.0" encoding="UTF-8"?>
<svg xmlns="http://www.w3.org/2000/svg" xmlns:xlink="http://www.w3.org/1999/xlink" viewBox="0 0 48 48" width="48px" height="48px">
<g id="surface5291044">
<path style=" stroke:none;fill-rule:nonzero;fill:rgb(0%,32.941177%,41.960785%);fill-opacity:1;" d="M 29.921875 7.679688 C 29.472656 7.667969 29.078125 7.839844 28.875 8.339844 C 28.53125 9.175781 29.390625 9.992188 29.695312 10.421875 C 29.910156 10.71875 30.1875 11.050781 30.339844 11.386719 C 30.441406 11.605469 30.457031 11.828125 30.542969 12.058594 C 30.757812 12.632812 31.097656 13.285156 31.371094 13.820312 C 31.511719 14.089844 31.664062 14.371094 31.839844 14.609375 C 31.949219 14.757812 32.132812 14.824219 32.164062 15.046875 C 31.984375 15.304688 31.972656 15.699219 31.871094 16.019531 C 31.414062 17.464844 31.585938 19.261719 32.25 20.324219 C 32.457031 20.65625 32.941406 21.355469 33.601562 21.089844 C 34.175781 20.855469 34.050781 20.121094 34.214844 19.472656 C 34.253906 19.332031 34.230469 19.222656 34.304688 19.125 L 34.304688 19.15625 C 34.476562 19.507812 34.652344 19.859375 34.828125 20.207031 C 35.222656 20.839844 35.917969 21.496094 36.503906 21.941406 C 36.804688 22.171875 37.046875 22.566406 37.441406 22.703125 L 37.441406 22.671875 L 37.410156 22.671875 C 37.335938 22.550781 37.214844 22.503906 37.117188 22.410156 C 36.890625 22.183594 36.632812 21.902344 36.445312 21.644531 C 35.910156 20.921875 35.4375 20.125 35.011719 19.300781 C 34.804688 18.90625 34.625 18.472656 34.453125 18.070312 C 34.382812 17.914062 34.382812 17.679688 34.246094 17.597656 C 34.054688 17.894531 33.777344 18.132812 33.628906 18.480469 C 33.398438 19.035156 33.363281 19.714844 33.277344 20.414062 C 33.226562 20.433594 33.246094 20.417969 33.222656 20.445312 C 32.8125 20.34375 32.667969 19.921875 32.515625 19.5625 C 32.132812 18.652344 32.058594 17.183594 32.398438 16.136719 C 32.484375 15.863281 32.878906 15.007812 32.722656 14.757812 C 32.648438 14.503906 32.390625 14.363281 32.253906 14.171875 C 32.078125 13.933594 31.90625 13.625 31.785156 13.351562 C 31.46875 12.636719 31.171875 11.8125 30.839844 11.09375 C 30.683594 10.746094 30.417969 10.402344 30.195312 10.09375 C 29.953125 9.757812 29.679688 9.511719 29.488281 9.097656 C 29.425781 8.953125 29.332031 8.722656 29.433594 8.574219 C 29.464844 8.472656 29.507812 8.429688 29.609375 8.394531 C 29.777344 8.265625 30.25 8.4375 30.429688 8.511719 C 30.898438 8.707031 31.292969 8.894531 31.691406 9.15625 C 31.882812 9.285156 32.074219 9.527344 32.304688 9.601562 L 32.570312 9.601562 C 32.984375 9.695312 33.445312 9.625 33.828125 9.746094 C 34.511719 9.953125 35.121094 10.273438 35.671875 10.625 C 37.363281 11.6875 38.75 13.207031 39.691406 15.019531 C 39.84375 15.3125 39.910156 15.59375 40.046875 15.898438 C 40.3125 16.523438 40.652344 17.167969 40.921875 17.773438 C 41.191406 18.386719 41.453125 18.996094 41.832031 19.503906 C 42.03125 19.769531 42.800781 19.917969 43.152344 20.0625 C 43.394531 20.167969 43.800781 20.277344 44.027344 20.414062 C 44.476562 20.679688 44.902344 21 45.320312 21.296875 C 45.527344 21.441406 46.167969 21.761719 46.199219 22.027344 C 45.167969 22 44.382812 22.09375 43.710938 22.378906 C 43.519531 22.460938 43.210938 22.460938 43.179688 22.703125 C 43.28125 22.8125 43.300781 22.976562 43.382812 23.109375 C 43.546875 23.371094 43.816406 23.71875 44.058594 23.902344 C 44.324219 24.101562 44.59375 24.316406 44.878906 24.492188 C 45.382812 24.796875 45.945312 24.972656 46.433594 25.277344 C 46.71875 25.460938 47.007812 25.691406 47.285156 25.894531 C 47.421875 26 47.511719 26.15625 47.691406 26.21875 L 47.691406 26.191406 C 47.597656 26.070312 47.578125 25.90625 47.488281 25.78125 L 47.105469 25.394531 C 46.734375 24.902344 46.261719 24.46875 45.757812 24.109375 C 45.355469 23.820312 44.460938 23.429688 44.296875 22.964844 L 44.265625 22.933594 C 44.546875 22.90625 44.878906 22.800781 45.140625 22.730469 C 45.585938 22.613281 45.976562 22.640625 46.429688 22.527344 C 46.636719 22.464844 46.839844 22.40625 47.046875 22.351562 L 47.046875 22.230469 C 46.820312 21.996094 46.652344 21.683594 46.402344 21.46875 C 45.746094 20.910156 45.03125 20.351562 44.292969 19.886719 C 43.882812 19.628906 43.375 19.457031 42.945312 19.242188 C 42.796875 19.167969 42.542969 19.128906 42.445312 19.003906 C 42.21875 18.714844 42.09375 18.347656 41.917969 18.011719 C 41.550781 17.300781 41.191406 16.53125 40.863281 15.785156 C 40.640625 15.277344 40.496094 14.773438 40.21875 14.316406 C 38.886719 12.132812 37.453125 10.808594 35.234375 9.511719 C 34.761719 9.234375 34.195312 9.128906 33.597656 8.984375 C 33.269531 8.960938 32.953125 8.945312 32.625 8.925781 C 32.429688 8.84375 32.222656 8.601562 32.039062 8.484375 C 31.578125 8.195312 30.671875 7.691406 29.921875 7.679688 Z M 33.097656 10.859375 C 32.882812 10.855469 32.730469 10.886719 32.570312 10.921875 L 32.570312 10.949219 L 32.597656 10.949219 C 32.699219 11.160156 32.882812 11.296875 33.011719 11.476562 C 33.109375 11.679688 33.203125 11.886719 33.300781 12.09375 L 33.328125 12.0625 C 33.511719 11.9375 33.597656 11.730469 33.597656 11.417969 C 33.519531 11.34375 33.511719 11.246094 33.449219 11.15625 C 33.363281 11.03125 33.203125 10.964844 33.097656 10.859375 Z M 1.792969 23.035156 C 1.503906 23.046875 1.1875 23.105469 0.847656 23.210938 C 0.277344 23.386719 -0.00390625 23.726562 -0.00390625 24.421875 L -0.00390625 31.679688 L 1.921875 31.679688 L 1.921875 24.597656 L 4.585938 30.652344 C 4.917969 31.40625 5.367188 31.675781 6.246094 31.675781 C 7.132812 31.675781 7.5625 31.40625 7.894531 30.652344 L 10.558594 24.75 L 10.558594 31.679688 L 12.480469 31.679688 L 12.480469 24.421875 C 12.480469 23.726562 12.203125 23.386719 11.628906 23.210938 C 10.265625 22.78125 9.34375 23.152344 8.933594 24.085938 L 6.195312 30.242188 L 3.546875 24.085938 C 3.246094 23.386719 2.648438 23.003906 1.792969 23.035156 Z M 25.195312 23.039062 C 24.4375 23.039062 22.078125 23.128906 22.078125 24.960938 L 22.078125 26.144531 C 22.078125 26.984375 22.820312 27.671875 24.421875 27.839844 C 24.601562 27.851562 24.78125 27.867188 24.960938 27.867188 C 24.960938 27.867188 26.828125 27.828125 26.878906 27.839844 C 27.960938 27.839844 27.839844 28.679688 27.839844 28.800781 L 27.839844 29.761719 C 27.839844 29.890625 27.808594 30.71875 26.867188 30.71875 L 22.078125 30.71875 L 22.078125 31.679688 L 26.886719 31.679688 C 27.515625 31.679688 28.128906 31.546875 28.617188 31.320312 C 29.425781 30.949219 29.761719 30.445312 29.761719 29.785156 L 29.761719 28.414062 C 29.761719 26.941406 27.929688 26.878906 26.878906 26.878906 L 24.960938 26.878906 C 24.207031 26.878906 24.089844 26.421875 24 25.921875 L 24 24.960938 C 24.089844 24.578125 24.257812 24.058594 24.925781 24 L 29.761719 24 L 29.761719 23.039062 Z M 32.621094 23.039062 C 31.203125 23.234375 30.703125 23.941406 30.703125 24.960938 L 30.703125 29.761719 C 30.703125 30.695312 31.226562 31.257812 32.296875 31.546875 C 32.660156 31.648438 32.984375 31.691406 33.292969 31.691406 L 35.429688 31.679688 L 36.6875 31.679688 L 37.753906 32.640625 L 39.914062 32.640625 L 38.429688 31.300781 C 39.128906 31.011719 39.34375 30.570312 39.34375 29.742188 L 39.34375 24.960938 C 39.34375 23.941406 38.679688 23.234375 37.265625 23.039062 Z M 40.320312 23.039062 L 40.320312 29.71875 C 40.320312 30.878906 40.976562 31.53125 42.710938 31.660156 C 42.875 31.667969 43.039062 31.679688 43.199219 31.679688 L 48 31.679688 L 48 30.71875 L 43.5625 30.71875 C 42.574219 30.71875 42.238281 30.304688 42.238281 29.710938 L 42.238281 23.039062 Z M 33.765625 24 L 36.234375 24 C 36.890625 24 37.328125 24.523438 37.425781 24.960938 C 37.425781 24.960938 37.441406 29.429688 37.441406 29.761719 C 37.441406 30.089844 37.257812 30.238281 37.257812 30.238281 L 36.734375 29.761719 L 34.558594 29.761719 L 35.628906 30.71875 L 33.765625 30.71875 C 33.097656 30.71875 32.722656 30.226562 32.625 29.761719 L 32.625 25.058594 C 32.625 24.546875 33.015625 24 33.765625 24 Z M 13.441406 25.921875 C 13.476562 25.957031 13.441406 30.011719 13.441406 30.089844 C 13.453125 30.929688 14.519531 31.664062 16.1875 31.679688 L 19.199219 31.679688 L 19.199219 31.742188 C 19.199219 31.921875 19.332031 32.523438 18.238281 32.640625 C 18.230469 32.640625 13.453125 32.640625 13.441406 32.640625 L 13.441406 33.601562 L 18.445312 33.601562 C 19.292969 33.574219 21.132812 33.382812 21.121094 31.914062 C 21.121094 31.886719 21.128906 25.921875 21.121094 25.921875 L 19.199219 25.921875 L 19.199219 30.71875 C 19.171875 30.71875 16.824219 30.726562 16.351562 30.71875 C 15.421875 30.703125 15.34375 30.175781 15.359375 29.972656 L 15.359375 25.921875 Z M 13.441406 25.921875 "/>
</g>
</svg>
